<svg xmlns="http://www.w3.org/2000/svg" viewBox="0 0 692.658 155.383"><path d="M90.447 140.063c-33.26-1.31-59.749-14.197-59.156-28.774.57-14.577 27.99-25.325 61.25-24.013 10.854.423 34.995.783 43.373.888a2.73 2.73 0 0 0 2.77-2.877c-.168-3.47-.697-11.044-.802-12.61a1.893 1.893 0 0 0-1.863-1.777c-7.823-.078-38.853 2.533-44.837 2.932a.306.306 0 0 1-.207-.548c6.708-5.173 30.338-14.296 39.86-16.961a1.882 1.882 0 0 0 1.206-2.624c-2.2-4.654-6.77-12.186-9.435-15.487-.571-.72-1.587-.888-2.39-.444-17.14 9.705-35.388 17.708-52.723 27.582-.234.133-.5-.125-.368-.36 8.74-15.494 25.809-27.757 40.692-39.938.93-.761.91-2.2-.042-2.962-3.957-3.173-9.69-7.066-12.166-8.695a1.88 1.88 0 0 0-2.264.148c-6.928 5.986-45.606 39.425-51.169 44.235-.175.151-.431-.036-.345-.252 1.905-4.78 12.416-29.357 34.694-49.886 1.058-.973.72-2.73-.635-3.195C70.75 2.668 64.762.785 59.747.023a1.82 1.82 0 0 0-1.48.423c-38.613 33.28-123.538 161.41 30.952 154.682a1.88 1.88 0 0 0 1.566-.973c1.1-2.01 1.735-7.003 3.3-11.194.508-1.353-.147-2.792-1.586-2.834-.698 0-1.375-.042-2.074-.064z"/><path d="M89.236 125.653c7.548 0 13.667-6.119 13.667-13.667s-6.119-13.668-13.667-13.668-13.668 6.12-13.668 13.668 6.12 13.667 13.668 13.667m148.436-66.614h27.102l-29.767 29.62 32.434 45.615h-26.807l-21.03-31.25-7.702 7.85v23.4h-22.511V30.604h22.511v57.018zm141.302 51.534c.445 8.293 6.073 11.403 15.107 11.403 5.183 0 11.848-2.221 11.848-7.997 0-8.738-10.367-9.775-21.623-11.404-11.108-1.63-26.658-5.035-26.658-23.252 0-6.664 2.814-23.104 34.655-23.104 27.252 0 33.324 13.478 33.768 23.548h-20.439c-.74-8.738-8.886-8.441-11.847-8.441-3.851 0-12.737.444-12.737 6.516 0 8.886 10.663 9.479 18.808 10.663 12.886 1.926 29.473 4.295 29.473 22.956 0 11.404-5.776 25.622-35.99 25.622-23.547 0-36.876-10.515-37.468-26.51zm203.348 23.701v-9.034h-.296c-7.553 8.294-13.329 11.849-22.807 11.849-21.179 0-34.212-16.588-34.212-40.729s13.182-40.135 34.656-40.135c7.554 0 17.477 3.703 22.66 10.367V30.603h22.511v103.671zm-16.438-62.943c-12.59 0-17.476 12.293-17.476 25.326 0 15.847 6.812 25.325 17.476 25.325 9.033 0 17.624-6.665 17.624-25.325 0-16.44-6.368-25.326-17.624-25.326m-222.15 47.387.445-34.36c0-8.737-.592-28.139-34.508-28.139-8.294 0-34.212 1.037-35.396 27.103h21.475c0-11.108 9.627-11.996 13.774-11.996 2.517 0 11.699 0 12.143 9.923v2.073c-.444 7.257-6.368 6.072-22.956 8.442-13.625 2.37-27.99 6.368-27.99 23.548 0 6.368 2.221 21.77 26.213 21.77 9.33 0 19.253-2.665 25.178-10.218h.443v7.404h21.328s-.213-12.842-.149-15.55m-21.94-15.55c0 15.106-10.96 18.808-16.44 18.808-4.293 0-11.55-1.629-11.55-8.738 0-8.441 8.44-10.07 13.18-10.811 8.59-1.63 8.145-.889 14.81-3.999zm190.016 15.55.445-34.36c0-8.737-.593-28.139-34.508-28.139-8.294 0-34.212 1.037-35.396 27.103h21.475c0-11.108 9.626-11.996 13.772-11.996 2.518 0 11.7 0 12.145 9.923v2.073c-.444 7.257-6.368 6.072-22.956 8.442-13.625 2.37-27.99 6.368-27.99 23.548 0 6.368 2.221 21.77 26.213 21.77 9.33 0 19.253-2.665 25.178-10.218h.443v7.404h21.327s-.212-12.842-.148-15.55m-21.94-15.55c0 15.106-10.96 18.808-16.44 18.808-4.293 0-11.55-1.629-11.55-8.738 0-8.441 8.44-10.07 13.18-10.811 8.59-1.63 8.145-.889 14.81-3.999zm202.343 15.55.445-34.36c0-8.737-.592-28.139-34.508-28.139-8.294 0-34.212 1.037-35.396 27.103h21.475c0-11.108 9.626-11.996 13.773-11.996 2.517 0 11.7 0 12.144 9.923v2.073c-.444 7.257-6.368 6.072-22.956 8.442-13.625 2.37-27.99 6.368-27.99 23.548 0 6.368 2.221 21.77 26.213 21.77 9.33 0 19.253-2.665 25.178-10.218h.443v7.404h21.328s-.213-12.842-.15-15.55Zm-21.94-15.55c0 15.106-10.96 18.808-16.439 18.808-4.294 0-11.552-1.629-11.552-8.738 0-8.441 8.442-10.07 13.18-10.811 8.59-1.63 8.146-.889 14.811-3.999z"/></svg>